<svg preserveAspectRatio="none" width="100%" height="100%" overflow="visible" style="display: block;" viewBox="0 0 16 16" fill="none" xmlns="http://www.w3.org/2000/svg">
<g id="Badge" clip-path="url(#clip0_2004_141)">
<path id="Vector" d="M7.0142 1.74912C7.54313 1.16837 8.45687 1.16837 8.9858 1.74912L9.66593 2.49594C9.9332 2.78945 10.3174 2.94859 10.714 2.93005L11.723 2.8829C12.5076 2.84623 13.1538 3.49238 13.1171 4.27703L13.0699 5.28603C13.0514 5.68259 13.2105 6.06677 13.5041 6.33407L14.2509 7.0142C14.8317 7.54313 14.8317 8.45687 14.2509 8.9858L13.5041 9.66593C13.2105 9.9332 13.0514 10.3174 13.0699 10.714L13.1171 11.723C13.1538 12.5076 12.5076 13.1538 11.723 13.1171L10.714 13.0699C10.3174 13.0514 9.9332 13.2105 9.66593 13.5041L8.9858 14.2509C8.45687 14.8317 7.54313 14.8317 7.0142 14.2509L6.33407 13.5041C6.06677 13.2105 5.68259 13.0514 5.28603 13.0699L4.27702 13.1171C3.49238 13.1538 2.84623 12.5076 2.8829 11.723L2.93005 10.714C2.94859 10.3174 2.78945 9.9332 2.49594 9.66593L1.74912 8.9858C1.16837 8.45687 1.16837 7.54313 1.74912 7.0142L2.49594 6.33407C2.78945 6.06677 2.94859 5.68259 2.93005 5.28603L2.8829 4.27702C2.84623 3.49238 3.49238 2.84623 4.27703 2.8829L5.28603 2.93005C5.68259 2.94859 6.06677 2.78945 6.33407 2.49594L7.0142 1.74912Z" fill="var(--fill-0, #1574D2)" stroke="var(--stroke-0, #1574D2)" stroke-width="1.06667"/>
<path id="Vector_2" d="M6 8L7.33333 9.33333L10 6.66667" stroke="var(--stroke-0, white)" stroke-width="1.06667" stroke-linecap="round" stroke-linejoin="round"/>
</g>
<defs>
<clipPath id="clip0_2004_141">
<rect width="16" height="16" fill="white"/>
</clipPath>
</defs>
</svg>
